<?xml version="1.0" standalone="no"?><!DOCTYPE svg PUBLIC "-//W3C//DTD SVG 1.1//EN" "http://www.w3.org/Graphics/SVG/1.1/DTD/svg11.dtd"><svg t="1676526464608" class="icon" viewBox="0 0 1024 1024" version="1.1" xmlns="http://www.w3.org/2000/svg" p-id="1247" xmlns:xlink="http://www.w3.org/1999/xlink" width="200" height="200"><path d="M824 177.557333h-144V128h-48v49.557333h-96V128h-48v49.557333h-96V128h-48v49.557333h-144C160.298667 177.557333 128 210.88 128 251.861333v569.813334C128 862.656 160.298667 896 200 896h624C863.701333 896 896 862.656 896 821.674667v-569.813334c0-40.96-32.298667-74.304-72-74.304z m24 644.117334c0 13.653333-10.773333 24.768-24 24.768H200c-13.226667 0-24-11.114667-24-24.746667v-569.813333c0-13.696 10.752-24.789333 24-24.789334h144v49.557334h48v-49.557334h96v49.557334h48v-49.557334h96v49.557334h48v-49.557334h144c13.226667 0 24 11.093333 24 24.789334v569.813333z" p-id="1248"></path><path d="M296 375.744h96v49.514667h-96v-49.514667z m168 0h96v49.514667h-96v-49.514667z m168 0h96v49.514667h-96v-49.514667z m-336 148.650667h96v49.536h-96v-49.536z m168 0h96v49.536h-96v-49.536z m168 0h96v49.536h-96v-49.536z m-336 148.629333h96v49.557333h-96v-49.557333z m168 0h96v49.557333h-96v-49.557333z m168 0h96v49.557333h-96v-49.557333z" p-id="1249"></path></svg>