<?xml version="1.0" standalone="no"?><!DOCTYPE svg PUBLIC "-//W3C//DTD SVG 1.1//EN" "http://www.w3.org/Graphics/SVG/1.1/DTD/svg11.dtd"><svg t="1682411474769" class="icon" viewBox="0 0 1024 1024" version="1.1" xmlns="http://www.w3.org/2000/svg" p-id="2461" xmlns:xlink="http://www.w3.org/1999/xlink" width="50" height="50"><path d="M840.021333 466.368h9.557334a46.506667 46.506667 0 0 0 46.442666-46.442667v-32.149333A46.528 46.528 0 0 0 849.557333 341.333333h-18.048c0.170667-1.642667 0.490667-3.221333 0.490667-4.885333v-11.541333C832 298.666667 810.666667 277.333333 784.448 277.333333H512l60.821333-60.821333a3.882667 3.882667 0 0 0-0.426666-5.888L496.917333 154.026667a3.904 3.904 0 0 0-6.250666 3.114666V277.333333H239.552C213.333333 277.333333 192 298.666667 192 324.885333v11.541334c0 1.685333 0.32 3.264 0.490667 4.906666h-18.048A46.506667 46.506667 0 0 0 128 387.776v32.149333a46.506667 46.506667 0 0 0 46.442667 46.442667h9.536C196.501333 508.437333 213.333333 579.456 213.333333 657.322667c0 57.642667-10.688 121.130667-16.938666 153.344H149.333333a21.333333 21.333333 0 0 0 0 42.666666h725.333334a21.333333 21.333333 0 0 0 0-42.666666h-47.061334c-6.250667-32.213333-16.938667-95.701333-16.938666-153.344 0-77.866667 16.832-148.885333 29.354666-190.954667zM775.274667 746.666667H703.573333c-3.072-33.28-7.232-96.085333-1.728-152.234667 3.754667-38.485333 15.296-98.986667 22.72-118.954667a19.925333 19.925333 0 0 0 1.152-9.109333h73.173334C786.261333 512.384 768 590.549333 768 658.666667c0 26.154667 3.285333 58.389333 7.274667 88z m-414.058667-155.050667c-3.584-36.736-18.24-100.522667-26.944-125.248h46.272a20.053333 20.053333 0 0 0 1.130667 9.002667c7.36 19.989333 18.709333 80.533333 22.336 119.018666 5.312 56.192 0.938667 119.018667-2.24 152.256h-43.2c2.773333-34.154667 7.445333-105.984 2.645333-155.029333z m85.397333 0.106667c-3.477333-36.757333-17.92-100.608-26.538666-125.333334h180.352c-8.618667 24.725333-23.082667 88.576-26.538667 125.333334-4.629333 49.024 0.256 120.746667 3.136 154.944h-133.546667c2.858667-34.218667 7.765333-105.941333 3.136-154.944zM618.709333 746.666667c-3.178667-33.258667-7.552-96.085333-2.24-152.256 3.648-38.506667 14.976-99.050667 22.336-119.018667a20.053333 20.053333 0 0 0 1.130667-9.002667h46.272c-8.704 24.704-23.36 88.490667-26.944 125.248-4.8 49.045333-0.128 120.874667 2.645333 155.050667h-43.2zM234.666667 336.448v-11.541333a4.906667 4.906667 0 0 1 4.885333-4.906667H784.426667a4.906667 4.906667 0 0 1 4.906666 4.885333v11.541334a4.906667 4.906667 0 0 1-4.885333 4.906666H239.552a4.906667 4.906667 0 0 1-4.885333-4.885333z m-64 51.328c0-2.069333 1.706667-3.776 3.776-3.776h675.114666c2.090667 0 3.776 1.706667 3.776 3.776v32.149333a3.776 3.776 0 0 1-3.776 3.776H174.442667A3.776 3.776 0 0 1 170.666667 419.925333v-32.149333z m124.074666 78.592a19.925333 19.925333 0 0 0 1.152 9.109333c7.424 19.946667 18.965333 80.469333 22.72 118.954667 5.482667 56.128 1.322667 118.954667-1.728 152.234667h-68.16c3.989333-29.610667 7.274667-61.845333 7.274667-88 0-68.117333-18.261333-146.282667-30.890667-192.298667h69.632zM238.656 810.666667c1.088-6.122667 2.325333-13.312 3.669333-21.333334h539.392c1.322667 8.021333 2.56 15.210667 3.669334 21.333334H238.656z" fill="#1296db" p-id="2462"></path></svg>